<svg version="1.1" xmlns="http://www.w3.org/2000/svg" viewBox="0 0 20 20" width="20" height="20" class="excalidraw-svg"><!-- svg-source:excalidraw --><metadata></metadata><defs><style class="style-fonts">
      </style></defs><rect x="0" y="0" width="20" height="20" fill="#ffffff"></rect><g stroke-linecap="round" transform="translate(5 5) rotate(0 5 5)"><path d="M10 5 C10 5.29, 9.97 5.58, 9.92 5.87 C9.87 6.15, 9.8 6.44, 9.7 6.71 C9.6 6.98, 9.47 7.25, 9.33 7.5 C9.19 7.75, 9.02 7.99, 8.83 8.21 C8.64 8.44, 8.44 8.64, 8.21 8.83 C7.99 9.02, 7.75 9.19, 7.5 9.33 C7.25 9.47, 6.98 9.6, 6.71 9.7 C6.44 9.8, 6.15 9.87, 5.87 9.92 C5.58 9.97, 5.29 10, 5 10 C4.71 10, 4.42 9.97, 4.13 9.92 C3.85 9.87, 3.56 9.8, 3.29 9.7 C3.02 9.6, 2.75 9.47, 2.5 9.33 C2.25 9.19, 2.01 9.02, 1.79 8.83 C1.56 8.64, 1.36 8.44, 1.17 8.21 C0.98 7.99, 0.81 7.75, 0.67 7.5 C0.53 7.25, 0.4 6.98, 0.3 6.71 C0.2 6.44, 0.13 6.15, 0.08 5.87 C0.03 5.58, 0 5.29, 0 5 C0 4.71, 0.03 4.42, 0.08 4.13 C0.13 3.85, 0.2 3.56, 0.3 3.29 C0.4 3.02, 0.53 2.75, 0.67 2.5 C0.81 2.25, 0.98 2.01, 1.17 1.79 C1.36 1.56, 1.56 1.36, 1.79 1.17 C2.01 0.98, 2.25 0.81, 2.5 0.67 C2.75 0.53, 3.02 0.4, 3.29 0.3 C3.56 0.2, 3.85 0.13, 4.13 0.08 C4.42 0.03, 4.71 0, 5 0 C5.29 0, 5.58 0.03, 5.87 0.08 C6.15 0.13, 6.44 0.2, 6.71 0.3 C6.98 0.4, 7.25 0.53, 7.5 0.67 C7.75 0.81, 7.99 0.98, 8.21 1.17 C8.44 1.36, 8.64 1.56, 8.83 1.79 C9.02 2.01, 9.19 2.25, 9.33 2.5 C9.47 2.75, 9.6 3.02, 9.7 3.29 C9.8 3.56, 9.87 3.85, 9.92 4.13 C9.97 4.42, 9.99 4.86, 10 5 C10.01 5.14, 10.01 4.86, 10 5" stroke="none" stroke-width="0" fill="#ffc9c9"></path><path d="M10 5 C10 5.29, 9.97 5.58, 9.92 5.87 C9.87 6.15, 9.8 6.44, 9.7 6.71 C9.6 6.98, 9.47 7.25, 9.33 7.5 C9.19 7.75, 9.02 7.99, 8.83 8.21 C8.64 8.44, 8.44 8.64, 8.21 8.83 C7.99 9.02, 7.75 9.19, 7.5 9.33 C7.25 9.47, 6.98 9.6, 6.71 9.7 C6.44 9.8, 6.15 9.87, 5.87 9.92 C5.58 9.97, 5.29 10, 5 10 C4.71 10, 4.42 9.97, 4.13 9.92 C3.85 9.87, 3.56 9.8, 3.29 9.7 C3.02 9.6, 2.75 9.47, 2.5 9.33 C2.25 9.19, 2.01 9.02, 1.79 8.83 C1.56 8.64, 1.36 8.44, 1.17 8.21 C0.98 7.99, 0.81 7.75, 0.67 7.5 C0.53 7.25, 0.4 6.98, 0.3 6.71 C0.2 6.44, 0.13 6.15, 0.08 5.87 C0.03 5.58, 0 5.29, 0 5 C0 4.71, 0.03 4.42, 0.08 4.13 C0.13 3.85, 0.2 3.56, 0.3 3.29 C0.4 3.02, 0.53 2.75, 0.67 2.5 C0.81 2.25, 0.98 2.01, 1.17 1.79 C1.36 1.56, 1.56 1.36, 1.79 1.17 C2.01 0.98, 2.25 0.81, 2.5 0.67 C2.75 0.53, 3.02 0.4, 3.29 0.3 C3.56 0.2, 3.85 0.13, 4.13 0.08 C4.42 0.03, 4.71 0, 5 0 C5.29 0, 5.58 0.03, 5.87 0.08 C6.15 0.13, 6.44 0.2, 6.71 0.3 C6.98 0.4, 7.25 0.53, 7.5 0.67 C7.75 0.81, 7.99 0.98, 8.21 1.17 C8.44 1.36, 8.64 1.56, 8.83 1.79 C9.02 2.01, 9.19 2.25, 9.33 2.5 C9.47 2.75, 9.6 3.02, 9.7 3.29 C9.8 3.56, 9.87 3.85, 9.92 4.13 C9.97 4.42, 9.99 4.86, 10 5 C10.01 5.14, 10.01 4.86, 10 5" stroke="#e03131" stroke-width="1" fill="none"></path></g><g stroke-linecap="round"><g transform="translate(0 10) rotate(0 10 0)"><path d="M0 0 C6.74 0, 13.47 0, 20 0 M0 0 C5.84 0, 11.67 0, 20 0" stroke="#e03131" stroke-width="1" fill="none"></path></g></g><mask></mask><g stroke-linecap="round"><g transform="translate(10 0) rotate(0 0 10)"><path d="M0 0 C0 4.99, 0 9.98, 0 20 M0 0 C0 5.87, 0 11.74, 0 20" stroke="#e03131" stroke-width="1" fill="none"></path></g></g><mask></mask></svg>