<svg version="1.1" xmlns="http://www.w3.org/2000/svg" viewBox="0 0 115.49138794660757 115.33580636059196" width="115.49138794660757" height="115.33580636059196" class="excalidraw-svg"><!-- svg-source:excalidraw --><metadata></metadata><defs><style class="style-fonts">
      </style></defs><rect x="0" y="0" width="115.49138794660757" height="115.33580636059196" fill="#ffffff"></rect><g stroke-linecap="round"><g transform="translate(25.951298851500383 42.79481345762008) rotate(0 31.966675642634357 0)"><path d="M0 0 C15.88 0, 31.76 0, 63.93 0 M0 0 C22.18 0, 44.35 0, 63.93 0" stroke="#1e1e1e" stroke-width="10" fill="none"></path></g></g><mask></mask><g stroke-linecap="round"><g transform="translate(25.04659186239587 72.66860750601165) rotate(0 32.37775799002458 0)"><path d="M0 0 C22.23 0, 44.47 0, 64.76 0 M0 0 C21.1 0, 42.2 0, 64.76 0" stroke="#1e1e1e" stroke-width="10" fill="none"></path></g></g><mask></mask><g stroke-linecap="round"><g transform="translate(72.76038231298594 24.555138577641856) rotate(0 0 32.8002442070254)"><path d="M0 0 C0 21.41, 0 42.81, 0 65.6 M0 0 C0 18.42, 0 36.84, 0 65.6" stroke="#1e1e1e" stroke-width="10" fill="none"></path></g></g><mask></mask><g stroke-linecap="round"><g transform="translate(42.66719953494362 26.18860713900233) rotate(0 0 32.41359872308635)"><path d="M0 0 C0 20.52, 0 41.04, 0 64.83 M0 0 C0 20.3, 0 40.6, 0 64.83" stroke="#1e1e1e" stroke-width="10" fill="none"></path></g></g><mask></mask><g stroke-linecap="round"><g transform="translate(42.66719904120009 26.33359994539751) rotate(0 -16.333599510415752 0.06380695106508938)"><path d="M0 0 C-0.01 4.6, -0.03 9.2, -0.05 16.46 M0 0 C-0.01 4.47, -0.03 8.94, -0.05 16.46 M-0.05 16.46 C-5.78 16.42, -11.5 16.37, -16.33 16.33 M-0.05 16.46 C-6.27 16.41, -12.5 16.36, -16.33 16.33 M-16.33 16.33 C-16.33 16.33, -16.33 16.33, -16.33 16.33 M-16.33 16.33 C-16.33 16.33, -16.33 16.33, -16.33 16.33 M-16.33 16.33 C-16.93 16.3, -17.54 16.27, -17.93 16.25 M-16.33 16.33 C-16.88 16.31, -17.43 16.28, -17.93 16.25 M-17.93 16.25 C-18.46 16.18, -18.98 16.1, -19.52 16.02 M-17.93 16.25 C-18.51 16.17, -19.09 16.08, -19.52 16.02 M-19.52 16.02 C-20.01 15.9, -20.5 15.77, -21.07 15.63 M-19.52 16.02 C-19.89 15.93, -20.27 15.83, -21.07 15.63 M-21.07 15.63 C-21.48 15.49, -21.88 15.34, -22.58 15.09 M-21.07 15.63 C-21.62 15.44, -22.16 15.24, -22.58 15.09 M-22.58 15.09 C-22.91 14.94, -23.23 14.78, -24.03 14.4 M-22.58 15.09 C-23.1 14.84, -23.62 14.6, -24.03 14.4 M-24.03 14.4 C-24.46 14.15, -24.9 13.89, -25.41 13.58 M-24.03 14.4 C-24.55 14.1, -25.06 13.79, -25.41 13.58 M-25.41 13.58 C-25.71 13.35, -26.02 13.13, -26.7 12.63 M-25.41 13.58 C-25.69 13.37, -25.97 13.16, -26.7 12.63 M-26.7 12.63 C-27 12.35, -27.3 12.08, -27.88 11.55 M-26.7 12.63 C-26.98 12.37, -27.27 12.11, -27.88 11.55 M-27.88 11.55 C-28.17 11.23, -28.46 10.91, -28.96 10.36 M-27.88 11.55 C-28.2 11.2, -28.51 10.86, -28.96 10.36 M-28.96 10.36 C-29.16 10.09, -29.36 9.83, -29.91 9.07 M-28.96 10.36 C-29.33 9.86, -29.7 9.36, -29.91 9.07 M-29.91 9.07 C-30.17 8.64, -30.43 8.21, -30.74 7.7 M-29.91 9.07 C-30.15 8.68, -30.39 8.28, -30.74 7.7 M-30.74 7.7 C-30.96 7.24, -31.17 6.78, -31.42 6.25 M-30.74 7.7 C-30.98 7.2, -31.21 6.7, -31.42 6.25 M-31.42 6.25 C-31.61 5.74, -31.79 5.22, -31.96 4.74 M-31.42 6.25 C-31.57 5.83, -31.72 5.42, -31.96 4.74 M-31.96 4.74 C-32.07 4.33, -32.17 3.93, -32.35 3.19 M-31.96 4.74 C-32.05 4.39, -32.14 4.03, -32.35 3.19 M-32.35 3.19 C-32.4 2.86, -32.45 2.53, -32.59 1.6 M-32.35 3.19 C-32.44 2.63, -32.52 2.07, -32.59 1.6 M-32.59 1.6 C-32.62 1.05, -32.64 0.5, -32.67 0 M-32.59 1.6 C-32.61 1.19, -32.63 0.78, -32.67 0 M-32.67 0 C-32.64 -0.55, -32.61 -1.11, -32.59 -1.6 M-32.67 0 C-32.64 -0.6, -32.61 -1.19, -32.59 -1.6 M-32.59 -1.6 C-32.5 -2.23, -32.4 -2.86, -32.35 -3.19 M-32.59 -1.6 C-32.53 -1.97, -32.48 -2.34, -32.35 -3.19 M-32.35 -3.19 C-32.25 -3.6, -32.15 -4.02, -31.96 -4.74 M-32.35 -3.19 C-32.26 -3.54, -32.17 -3.9, -31.96 -4.74 M-31.96 -4.74 C-31.81 -5.18, -31.65 -5.62, -31.42 -6.25 M-31.96 -4.74 C-31.82 -5.15, -31.67 -5.56, -31.42 -6.25 M-31.42 -6.25 C-31.24 -6.63, -31.06 -7.01, -30.74 -7.7 M-31.42 -6.25 C-31.17 -6.78, -30.92 -7.31, -30.74 -7.7 M-30.74 -7.7 C-30.56 -8, -30.38 -8.29, -29.91 -9.07 M-30.74 -7.7 C-30.52 -8.07, -30.29 -8.44, -29.91 -9.07 M-29.91 -9.07 C-29.62 -9.47, -29.33 -9.86, -28.96 -10.36 M-29.91 -9.07 C-29.66 -9.42, -29.4 -9.76, -28.96 -10.36 M-28.96 -10.36 C-28.53 -10.83, -28.1 -11.31, -27.88 -11.55 M-28.96 -10.36 C-28.72 -10.63, -28.47 -10.9, -27.88 -11.55 M-27.88 -11.55 C-27.47 -11.92, -27.06 -12.3, -26.7 -12.63 M-27.88 -11.55 C-27.45 -11.94, -27.01 -12.34, -26.7 -12.63 M-26.7 -12.63 C-26.19 -13, -25.69 -13.37, -25.41 -13.58 M-26.7 -12.63 C-26.27 -12.94, -25.85 -13.26, -25.41 -13.58 M-25.41 -13.58 C-25.11 -13.76, -24.81 -13.94, -24.03 -14.4 M-25.41 -13.58 C-24.94 -13.86, -24.47 -14.14, -24.03 -14.4 M-24.03 -14.4 C-23.49 -14.66, -22.95 -14.92, -22.58 -15.09 M-24.03 -14.4 C-23.64 -14.59, -23.25 -14.78, -22.58 -15.09 M-22.58 -15.09 C-22.09 -15.27, -21.59 -15.45, -21.07 -15.63 M-22.58 -15.09 C-22.27 -15.2, -21.95 -15.32, -21.07 -15.63 M-21.07 -15.63 C-20.66 -15.73, -20.24 -15.84, -19.52 -16.02 M-21.07 -15.63 C-20.56 -15.76, -20.05 -15.89, -19.52 -16.02 M-19.52 -16.02 C-18.93 -16.11, -18.34 -16.19, -17.93 -16.25 M-19.52 -16.02 C-19.13 -16.08, -18.74 -16.14, -17.93 -16.25 M-17.93 -16.25 C-17.6 -16.27, -17.26 -16.29, -16.33 -16.33 M-17.93 -16.25 C-17.48 -16.28, -17.02 -16.3, -16.33 -16.33 M-16.33 -16.33 C-15.99 -16.32, -15.64 -16.3, -14.73 -16.25 M-16.33 -16.33 C-15.92 -16.31, -15.51 -16.29, -14.73 -16.25 M-14.73 -16.25 C-14.3 -16.19, -13.86 -16.13, -13.15 -16.02 M-14.73 -16.25 C-14.24 -16.18, -13.74 -16.11, -13.15 -16.02 M-13.15 -16.02 C-12.82 -15.94, -12.49 -15.86, -11.59 -15.63 M-13.15 -16.02 C-12.67 -15.9, -12.2 -15.78, -11.59 -15.63 M-11.59 -15.63 C-11.04 -15.43, -10.49 -15.24, -10.08 -15.09 M-11.59 -15.63 C-11.18 -15.48, -10.76 -15.33, -10.08 -15.09 M-10.08 -15.09 C-9.67 -14.89, -9.26 -14.7, -8.63 -14.4 M-10.08 -15.09 C-9.51 -14.82, -8.94 -14.55, -8.63 -14.4 M-8.63 -14.4 C-8.21 -14.15, -7.78 -13.89, -7.26 -13.58 M-8.63 -14.4 C-8.3 -14.21, -7.97 -14.01, -7.26 -13.58 M-7.26 -13.58 C-6.94 -13.34, -6.61 -13.1, -5.97 -12.63 M-7.26 -13.58 C-6.78 -13.23, -6.31 -12.87, -5.97 -12.63 M-5.97 -12.63 C-5.53 -12.22, -5.08 -11.82, -4.78 -11.55 M-5.97 -12.63 C-5.53 -12.23, -5.1 -11.83, -4.78 -11.55 M-4.78 -11.55 C-4.47 -11.2, -4.15 -10.85, -3.71 -10.36 M-4.78 -11.55 C-4.54 -11.28, -4.29 -11.01, -3.71 -10.36 M-3.71 -10.36 C-3.38 -9.91, -3.04 -9.47, -2.75 -9.07 M-3.71 -10.36 C-3.51 -10.09, -3.31 -9.82, -2.75 -9.07 M-2.75 -9.07 C-2.52 -8.68, -2.28 -8.29, -1.93 -7.7 M-2.75 -9.07 C-2.58 -8.79, -2.41 -8.5, -1.93 -7.7 M-1.93 -7.7 C-1.76 -7.34, -1.58 -6.97, -1.24 -6.25 M-1.93 -7.7 C-1.78 -7.38, -1.63 -7.07, -1.24 -6.25 M-1.24 -6.25 C-1.1 -5.84, -0.95 -5.43, -0.7 -4.74 M-1.24 -6.25 C-1.08 -5.8, -0.92 -5.35, -0.7 -4.74 M-0.7 -4.74 C-0.61 -4.37, -0.52 -4.01, -0.31 -3.19 M-0.7 -4.74 C-0.61 -4.37, -0.52 -4.01, -0.31 -3.19 M-0.31 -3.19 C-0.22 -2.58, -0.13 -1.98, -0.08 -1.6 M-0.31 -3.19 C-0.24 -2.67, -0.16 -2.16, -0.08 -1.6 M-0.08 -1.6 C-0.06 -1.15, -0.03 -0.7, 0 0 M-0.08 -1.6 C-0.06 -1.27, -0.05 -0.94, 0 0 M0 0 C0 0, 0 0, 0 0 M0 0 C0 0, 0 0, 0 0" stroke="#1e1e1e" stroke-width="10" fill="none"></path></g></g><mask></mask><g stroke-linecap="round"><g transform="translate(42.7310067784706 88.93839987874253) rotate(-90 -16.333599510415752 0.06380695106508938)"><path d="M0 0 C-0.01 4.38, -0.03 8.76, -0.05 16.46 M0 0 C-0.02 6.58, -0.04 13.16, -0.05 16.46 M-0.05 16.46 C-5.13 16.42, -10.2 16.38, -16.33 16.33 M-0.05 16.46 C-4.59 16.43, -9.12 16.39, -16.33 16.33 M-16.33 16.33 C-16.33 16.33, -16.33 16.33, -16.33 16.33 M-16.33 16.33 C-16.33 16.33, -16.33 16.33, -16.33 16.33 M-16.33 16.33 C-16.87 16.31, -17.41 16.28, -17.93 16.25 M-16.33 16.33 C-16.88 16.31, -17.42 16.28, -17.93 16.25 M-17.93 16.25 C-18.36 16.19, -18.79 16.13, -19.52 16.02 M-17.93 16.25 C-18.37 16.19, -18.8 16.13, -19.52 16.02 M-19.52 16.02 C-20.09 15.88, -20.66 15.73, -21.07 15.63 M-19.52 16.02 C-19.96 15.91, -20.4 15.8, -21.07 15.63 M-21.07 15.63 C-21.54 15.46, -22.01 15.3, -22.58 15.09 M-21.07 15.63 C-21.57 15.45, -22.06 15.28, -22.58 15.09 M-22.58 15.09 C-22.98 14.9, -23.38 14.71, -24.03 14.4 M-22.58 15.09 C-22.88 14.95, -23.18 14.81, -24.03 14.4 M-24.03 14.4 C-24.4 14.19, -24.76 13.97, -25.41 13.58 M-24.03 14.4 C-24.4 14.18, -24.77 13.96, -25.41 13.58 M-25.41 13.58 C-25.83 13.27, -26.24 12.96, -26.7 12.63 M-25.41 13.58 C-25.72 13.35, -26.03 13.12, -26.7 12.63 M-26.7 12.63 C-27.01 12.34, -27.32 12.06, -27.88 11.55 M-26.7 12.63 C-27.13 12.23, -27.57 11.83, -27.88 11.55 M-27.88 11.55 C-28.18 11.22, -28.48 10.89, -28.96 10.36 M-27.88 11.55 C-28.14 11.27, -28.39 10.99, -28.96 10.36 M-28.96 10.36 C-29.22 10.01, -29.49 9.65, -29.91 9.07 M-28.96 10.36 C-29.23 9.99, -29.51 9.63, -29.91 9.07 M-29.91 9.07 C-30.16 8.67, -30.4 8.26, -30.74 7.7 M-29.91 9.07 C-30.14 8.71, -30.36 8.34, -30.74 7.7 M-30.74 7.7 C-30.9 7.37, -31.05 7.04, -31.42 6.25 M-30.74 7.7 C-30.98 7.19, -31.22 6.69, -31.42 6.25 M-31.42 6.25 C-31.55 5.89, -31.68 5.52, -31.96 4.74 M-31.42 6.25 C-31.61 5.73, -31.8 5.2, -31.96 4.74 M-31.96 4.74 C-32.08 4.28, -32.19 3.83, -32.35 3.19 M-31.96 4.74 C-32.07 4.33, -32.17 3.92, -32.35 3.19 M-32.35 3.19 C-32.44 2.6, -32.53 2.01, -32.59 1.6 M-32.35 3.19 C-32.42 2.7, -32.5 2.22, -32.59 1.6 M-32.59 1.6 C-32.62 0.97, -32.65 0.34, -32.67 0 M-32.59 1.6 C-32.61 1.26, -32.62 0.92, -32.67 0 M-32.67 0 C-32.65 -0.39, -32.63 -0.78, -32.59 -1.6 M-32.67 0 C-32.64 -0.48, -32.62 -0.95, -32.59 -1.6 M-32.59 -1.6 C-32.52 -2.07, -32.45 -2.53, -32.35 -3.19 M-32.59 -1.6 C-32.5 -2.17, -32.42 -2.74, -32.35 -3.19 M-32.35 -3.19 C-32.27 -3.52, -32.19 -3.85, -31.96 -4.74 M-32.35 -3.19 C-32.23 -3.67, -32.11 -4.16, -31.96 -4.74 M-31.96 -4.74 C-31.8 -5.21, -31.63 -5.68, -31.42 -6.25 M-31.96 -4.74 C-31.78 -5.24, -31.6 -5.75, -31.42 -6.25 M-31.42 -6.25 C-31.19 -6.74, -30.96 -7.23, -30.74 -7.7 M-31.42 -6.25 C-31.24 -6.63, -31.06 -7.01, -30.74 -7.7 M-30.74 -7.7 C-30.56 -8, -30.38 -8.29, -29.91 -9.07 M-30.74 -7.7 C-30.45 -8.18, -30.16 -8.67, -29.91 -9.07 M-29.91 -9.07 C-29.66 -9.41, -29.41 -9.76, -28.96 -10.36 M-29.91 -9.07 C-29.64 -9.44, -29.37 -9.81, -28.96 -10.36 M-28.96 -10.36 C-28.62 -10.74, -28.28 -11.12, -27.88 -11.55 M-28.96 -10.36 C-28.63 -10.72, -28.3 -11.09, -27.88 -11.55 M-27.88 -11.55 C-27.47 -11.92, -27.06 -12.3, -26.7 -12.63 M-27.88 -11.55 C-27.59 -11.81, -27.3 -12.08, -26.7 -12.63 M-26.7 -12.63 C-26.2 -12.99, -25.71 -13.36, -25.41 -13.58 M-26.7 -12.63 C-26.37 -12.87, -26.04 -13.11, -25.41 -13.58 M-25.41 -13.58 C-24.95 -13.86, -24.49 -14.13, -24.03 -14.4 M-25.41 -13.58 C-25.09 -13.77, -24.77 -13.97, -24.03 -14.4 M-24.03 -14.4 C-23.57 -14.62, -23.11 -14.84, -22.58 -15.09 M-24.03 -14.4 C-23.53 -14.64, -23.03 -14.88, -22.58 -15.09 M-22.58 -15.09 C-22.17 -15.24, -21.75 -15.39, -21.07 -15.63 M-22.58 -15.09 C-22.18 -15.24, -21.77 -15.38, -21.07 -15.63 M-21.07 -15.63 C-20.63 -15.74, -20.18 -15.85, -19.52 -16.02 M-21.07 -15.63 C-20.61 -15.75, -20.14 -15.86, -19.52 -16.02 M-19.52 -16.02 C-19.18 -16.07, -18.84 -16.12, -17.93 -16.25 M-19.52 -16.02 C-18.89 -16.11, -18.26 -16.21, -17.93 -16.25 M-17.93 -16.25 C-17.3 -16.29, -16.66 -16.32, -16.33 -16.33 M-17.93 -16.25 C-17.44 -16.28, -16.95 -16.3, -16.33 -16.33 M-16.33 -16.33 C-15.86 -16.31, -15.38 -16.29, -14.73 -16.25 M-16.33 -16.33 C-15.71 -16.3, -15.09 -16.27, -14.73 -16.25 M-14.73 -16.25 C-14.41 -16.21, -14.09 -16.16, -13.15 -16.02 M-14.73 -16.25 C-14.19 -16.17, -13.65 -16.09, -13.15 -16.02 M-13.15 -16.02 C-12.73 -15.92, -12.32 -15.81, -11.59 -15.63 M-13.15 -16.02 C-12.77 -15.93, -12.4 -15.83, -11.59 -15.63 M-11.59 -15.63 C-11.27 -15.52, -10.95 -15.4, -10.08 -15.09 M-11.59 -15.63 C-11.21 -15.49, -10.82 -15.36, -10.08 -15.09 M-10.08 -15.09 C-9.55 -14.84, -9.03 -14.59, -8.63 -14.4 M-10.08 -15.09 C-9.68 -14.9, -9.27 -14.71, -8.63 -14.4 M-8.63 -14.4 C-8.12 -14.1, -7.6 -13.79, -7.26 -13.58 M-8.63 -14.4 C-8.27 -14.18, -7.9 -13.96, -7.26 -13.58 M-7.26 -13.58 C-6.96 -13.36, -6.66 -13.14, -5.97 -12.63 M-7.26 -13.58 C-6.93 -13.34, -6.61 -13.1, -5.97 -12.63 M-5.97 -12.63 C-5.5 -12.2, -5.04 -11.78, -4.78 -11.55 M-5.97 -12.63 C-5.63 -12.32, -5.3 -12.01, -4.78 -11.55 M-4.78 -11.55 C-4.56 -11.31, -4.34 -11.06, -3.71 -10.36 M-4.78 -11.55 C-4.52 -11.26, -4.26 -10.97, -3.71 -10.36 M-3.71 -10.36 C-3.5 -10.08, -3.29 -9.8, -2.75 -9.07 M-3.71 -10.36 C-3.34 -9.87, -2.98 -9.38, -2.75 -9.07 M-2.75 -9.07 C-2.57 -8.77, -2.39 -8.46, -1.93 -7.7 M-2.75 -9.07 C-2.46 -8.59, -2.18 -8.11, -1.93 -7.7 M-1.93 -7.7 C-1.69 -7.19, -1.45 -6.68, -1.24 -6.25 M-1.93 -7.7 C-1.71 -7.24, -1.49 -6.78, -1.24 -6.25 M-1.24 -6.25 C-1.07 -5.77, -0.9 -5.29, -0.7 -4.74 M-1.24 -6.25 C-1.13 -5.94, -1.02 -5.63, -0.7 -4.74 M-0.7 -4.74 C-0.57 -4.22, -0.44 -3.7, -0.31 -3.19 M-0.7 -4.74 C-0.62 -4.4, -0.53 -4.05, -0.31 -3.19 M-0.31 -3.19 C-0.24 -2.67, -0.16 -2.15, -0.08 -1.6 M-0.31 -3.19 C-0.25 -2.76, -0.19 -2.33, -0.08 -1.6 M-0.08 -1.6 C-0.06 -1.17, -0.04 -0.75, 0 0 M-0.08 -1.6 C-0.06 -1.12, -0.03 -0.64, 0 0 M0 0 C0 0, 0 0, 0 0 M0 0 C0 0, 0 0, 0 0" stroke="#1e1e1e" stroke-width="10" fill="none"></path></g></g><mask></mask><g stroke-linecap="round"><g transform="translate(105.42758082659134 88.68720283280425) rotate(180 -16.333599510415752 0.06380695106508938)"><path d="M0 0 C-0.02 4.91, -0.03 9.81, -0.05 16.46 M0 0 C-0.02 6.22, -0.04 12.44, -0.05 16.46 M-0.05 16.46 C-4.43 16.43, -8.81 16.39, -16.33 16.33 M-0.05 16.46 C-6.12 16.41, -12.19 16.37, -16.33 16.33 M-16.33 16.33 C-16.33 16.33, -16.33 16.33, -16.33 16.33 M-16.33 16.33 C-16.33 16.33, -16.33 16.33, -16.33 16.33 M-16.33 16.33 C-16.94 16.3, -17.54 16.27, -17.93 16.25 M-16.33 16.33 C-16.94 16.3, -17.55 16.27, -17.93 16.25 M-17.93 16.25 C-18.53 16.17, -19.12 16.08, -19.52 16.02 M-17.93 16.25 C-18.43 16.18, -18.93 16.11, -19.52 16.02 M-19.52 16.02 C-20.11 15.87, -20.7 15.72, -21.07 15.63 M-19.52 16.02 C-20.09 15.88, -20.66 15.73, -21.07 15.63 M-21.07 15.63 C-21.58 15.45, -22.08 15.27, -22.58 15.09 M-21.07 15.63 C-21.62 15.43, -22.17 15.24, -22.58 15.09 M-22.58 15.09 C-23.08 14.85, -23.59 14.62, -24.03 14.4 M-22.58 15.09 C-22.95 14.92, -23.32 14.74, -24.03 14.4 M-24.03 14.4 C-24.48 14.14, -24.93 13.87, -25.41 13.58 M-24.03 14.4 C-24.35 14.21, -24.67 14.02, -25.41 13.58 M-25.41 13.58 C-25.81 13.28, -26.22 12.98, -26.7 12.63 M-25.41 13.58 C-25.87 13.24, -26.34 12.89, -26.7 12.63 M-26.7 12.63 C-27.07 12.29, -27.45 11.94, -27.88 11.55 M-26.7 12.63 C-27.05 12.3, -27.41 11.98, -27.88 11.55 M-27.88 11.55 C-28.11 11.3, -28.34 11.04, -28.96 10.36 M-27.88 11.55 C-28.22 11.18, -28.55 10.81, -28.96 10.36 M-28.96 10.36 C-29.15 10.1, -29.35 9.84, -29.91 9.07 M-28.96 10.36 C-29.34 9.85, -29.72 9.33, -29.91 9.07 M-29.91 9.07 C-30.19 8.62, -30.46 8.16, -30.74 7.7 M-29.91 9.07 C-30.18 8.63, -30.44 8.19, -30.74 7.7 M-30.74 7.7 C-30.95 7.25, -31.17 6.8, -31.42 6.25 M-30.74 7.7 C-30.95 7.25, -31.17 6.8, -31.42 6.25 M-31.42 6.25 C-31.56 5.87, -31.69 5.49, -31.96 4.74 M-31.42 6.25 C-31.59 5.79, -31.76 5.32, -31.96 4.74 M-31.96 4.74 C-32.08 4.29, -32.19 3.85, -32.35 3.19 M-31.96 4.74 C-32.07 4.33, -32.17 3.92, -32.35 3.19 M-32.35 3.19 C-32.43 2.69, -32.5 2.19, -32.59 1.6 M-32.35 3.19 C-32.44 2.58, -32.53 1.96, -32.59 1.6 M-32.59 1.6 C-32.6 1.27, -32.62 0.93, -32.67 0 M-32.59 1.6 C-32.61 1.22, -32.63 0.85, -32.67 0 M-32.67 0 C-32.64 -0.57, -32.61 -1.13, -32.59 -1.6 M-32.67 0 C-32.64 -0.59, -32.61 -1.18, -32.59 -1.6 M-32.59 -1.6 C-32.52 -2.04, -32.46 -2.48, -32.35 -3.19 M-32.59 -1.6 C-32.53 -1.99, -32.47 -2.39, -32.35 -3.19 M-32.35 -3.19 C-32.21 -3.76, -32.06 -4.34, -31.96 -4.74 M-32.35 -3.19 C-32.25 -3.6, -32.14 -4.02, -31.96 -4.74 M-31.96 -4.74 C-31.79 -5.23, -31.62 -5.71, -31.42 -6.25 M-31.96 -4.74 C-31.81 -5.16, -31.67 -5.58, -31.42 -6.25 M-31.42 -6.25 C-31.26 -6.6, -31.09 -6.96, -30.74 -7.7 M-31.42 -6.25 C-31.15 -6.82, -30.88 -7.39, -30.74 -7.7 M-30.74 -7.7 C-30.49 -8.11, -30.24 -8.52, -29.91 -9.07 M-30.74 -7.7 C-30.46 -8.17, -30.17 -8.64, -29.91 -9.07 M-29.91 -9.07 C-29.69 -9.37, -29.47 -9.67, -28.96 -10.36 M-29.91 -9.07 C-29.67 -9.41, -29.42 -9.74, -28.96 -10.36 M-28.96 -10.36 C-28.54 -10.83, -28.12 -11.29, -27.88 -11.55 M-28.96 -10.36 C-28.73 -10.62, -28.49 -10.88, -27.88 -11.55 M-27.88 -11.55 C-27.57 -11.84, -27.25 -12.12, -26.7 -12.63 M-27.88 -11.55 C-27.57 -11.83, -27.26 -12.12, -26.7 -12.63 M-26.7 -12.63 C-26.3 -12.92, -25.91 -13.21, -25.41 -13.58 M-26.7 -12.63 C-26.28 -12.93, -25.87 -13.24, -25.41 -13.58 M-25.41 -13.58 C-25.06 -13.79, -24.7 -14, -24.03 -14.4 M-25.41 -13.58 C-25.11 -13.76, -24.81 -13.94, -24.03 -14.4 M-24.03 -14.4 C-23.48 -14.67, -22.93 -14.93, -22.58 -15.09 M-24.03 -14.4 C-23.72 -14.55, -23.41 -14.7, -22.58 -15.09 M-22.58 -15.09 C-22 -15.3, -21.41 -15.51, -21.07 -15.63 M-22.58 -15.09 C-22.24 -15.21, -21.9 -15.33, -21.07 -15.63 M-21.07 -15.63 C-20.65 -15.74, -20.22 -15.84, -19.52 -16.02 M-21.07 -15.63 C-20.57 -15.76, -20.07 -15.88, -19.52 -16.02 M-19.52 -16.02 C-19.16 -16.07, -18.8 -16.13, -17.93 -16.25 M-19.52 -16.02 C-18.91 -16.11, -18.29 -16.2, -17.93 -16.25 M-17.93 -16.25 C-17.49 -16.28, -17.04 -16.3, -16.33 -16.33 M-17.93 -16.25 C-17.6 -16.27, -17.27 -16.29, -16.33 -16.33 M-16.33 -16.33 C-15.99 -16.32, -15.66 -16.3, -14.73 -16.25 M-16.33 -16.33 C-15.84 -16.31, -15.35 -16.29, -14.73 -16.25 M-14.73 -16.25 C-14.41 -16.21, -14.08 -16.16, -13.15 -16.02 M-14.73 -16.25 C-14.3 -16.19, -13.86 -16.13, -13.15 -16.02 M-13.15 -16.02 C-12.59 -15.88, -12.04 -15.74, -11.59 -15.63 M-13.15 -16.02 C-12.55 -15.87, -11.96 -15.72, -11.59 -15.63 M-11.59 -15.63 C-11.14 -15.47, -10.69 -15.31, -10.08 -15.09 M-11.59 -15.63 C-11.15 -15.47, -10.71 -15.31, -10.08 -15.09 M-10.08 -15.09 C-9.57 -14.85, -9.06 -14.61, -8.63 -14.4 M-10.08 -15.09 C-9.63 -14.88, -9.19 -14.67, -8.63 -14.4 M-8.63 -14.4 C-8.18 -14.14, -7.73 -13.87, -7.26 -13.58 M-8.63 -14.4 C-8.26 -14.18, -7.89 -13.96, -7.26 -13.58 M-7.26 -13.58 C-6.91 -13.32, -6.56 -13.06, -5.97 -12.63 M-7.26 -13.58 C-6.76 -13.21, -6.26 -12.84, -5.97 -12.63 M-5.97 -12.63 C-5.63 -12.32, -5.3 -12.02, -4.78 -11.55 M-5.97 -12.63 C-5.54 -12.24, -5.11 -11.85, -4.78 -11.55 M-4.78 -11.55 C-4.51 -11.25, -4.23 -10.94, -3.71 -10.36 M-4.78 -11.55 C-4.56 -11.3, -4.33 -11.05, -3.71 -10.36 M-3.71 -10.36 C-3.43 -9.99, -3.15 -9.62, -2.75 -9.07 M-3.71 -10.36 C-3.35 -9.88, -2.99 -9.39, -2.75 -9.07 M-2.75 -9.07 C-2.56 -8.76, -2.37 -8.44, -1.93 -7.7 M-2.75 -9.07 C-2.45 -8.57, -2.14 -8.06, -1.93 -7.7 M-1.93 -7.7 C-1.73 -7.27, -1.53 -6.85, -1.24 -6.25 M-1.93 -7.7 C-1.74 -7.31, -1.56 -6.92, -1.24 -6.25 M-1.24 -6.25 C-1.03 -5.66, -0.82 -5.06, -0.7 -4.74 M-1.24 -6.25 C-1.05 -5.71, -0.86 -5.17, -0.7 -4.74 M-0.7 -4.74 C-0.56 -4.16, -0.41 -3.59, -0.31 -3.19 M-0.7 -4.74 C-0.61 -4.37, -0.51 -3.99, -0.31 -3.19 M-0.31 -3.19 C-0.24 -2.68, -0.16 -2.17, -0.08 -1.6 M-0.31 -3.19 C-0.25 -2.76, -0.19 -2.34, -0.08 -1.6 M-0.08 -1.6 C-0.06 -1.25, -0.04 -0.89, 0 0 M-0.08 -1.6 C-0.06 -1.21, -0.04 -0.81, 0 0 M0 0 C0 0, 0 0, 0 0 M0 0 C0 0, 0 0, 0 0" stroke="#1e1e1e" stroke-width="10" fill="none"></path></g></g><mask></mask><g stroke-linecap="round"><g transform="translate(105.42758056056073 26.397407107693766) rotate(90 -16.333599510415752 0.06380695106508938)"><path d="M0 0 C-0.02 6.22, -0.04 12.44, -0.05 16.46 M0 0 C-0.01 4.43, -0.03 8.86, -0.05 16.46 M-0.05 16.46 C-6.12 16.41, -12.19 16.37, -16.33 16.33 M-0.05 16.46 C-4.95 16.42, -9.84 16.38, -16.33 16.33 M-16.33 16.33 C-16.33 16.33, -16.33 16.33, -16.33 16.33 M-16.33 16.33 C-16.33 16.33, -16.33 16.33, -16.33 16.33 M-16.33 16.33 C-16.94 16.3, -17.55 16.27, -17.93 16.25 M-16.33 16.33 C-16.93 16.3, -17.53 16.27, -17.93 16.25 M-17.93 16.25 C-18.43 16.18, -18.93 16.11, -19.52 16.02 M-17.93 16.25 C-18.54 16.17, -19.14 16.08, -19.52 16.02 M-19.52 16.02 C-20.09 15.88, -20.66 15.73, -21.07 15.63 M-19.52 16.02 C-20.04 15.89, -20.56 15.76, -21.07 15.63 M-21.07 15.63 C-21.62 15.43, -22.17 15.24, -22.58 15.09 M-21.07 15.63 C-21.6 15.44, -22.12 15.26, -22.58 15.09 M-22.58 15.09 C-22.95 14.92, -23.32 14.74, -24.03 14.4 M-22.58 15.09 C-23.06 14.87, -23.53 14.64, -24.03 14.4 M-24.03 14.4 C-24.35 14.21, -24.67 14.02, -25.41 13.58 M-24.03 14.4 C-24.47 14.14, -24.9 13.88, -25.41 13.58 M-25.41 13.58 C-25.87 13.24, -26.34 12.89, -26.7 12.63 M-25.41 13.58 C-25.82 13.28, -26.22 12.98, -26.7 12.63 M-26.7 12.63 C-27.05 12.3, -27.41 11.98, -27.88 11.55 M-26.7 12.63 C-26.95 12.4, -27.2 12.17, -27.88 11.55 M-27.88 11.55 C-28.22 11.18, -28.55 10.81, -28.96 10.36 M-27.88 11.55 C-28.1 11.31, -28.32 11.06, -28.96 10.36 M-28.96 10.36 C-29.34 9.85, -29.72 9.33, -29.91 9.07 M-28.96 10.36 C-29.28 9.93, -29.6 9.5, -29.91 9.07 M-29.91 9.07 C-30.18 8.63, -30.44 8.19, -30.74 7.7 M-29.91 9.07 C-30.17 8.65, -30.43 8.22, -30.74 7.7 M-30.74 7.7 C-30.95 7.25, -31.17 6.8, -31.42 6.25 M-30.74 7.7 C-30.91 7.34, -31.08 6.97, -31.42 6.25 M-31.42 6.25 C-31.59 5.79, -31.76 5.32, -31.96 4.74 M-31.42 6.25 C-31.58 5.82, -31.73 5.38, -31.96 4.74 M-31.96 4.74 C-32.07 4.33, -32.17 3.92, -32.35 3.19 M-31.96 4.74 C-32.09 4.25, -32.21 3.76, -32.35 3.19 M-32.35 3.19 C-32.44 2.58, -32.53 1.96, -32.59 1.6 M-32.35 3.19 C-32.4 2.86, -32.45 2.52, -32.59 1.6 M-32.59 1.6 C-32.61 1.22, -32.63 0.85, -32.67 0 M-32.59 1.6 C-32.62 1.03, -32.64 0.47, -32.67 0 M-32.67 0 C-32.64 -0.59, -32.61 -1.18, -32.59 -1.6 M-32.67 0 C-32.65 -0.44, -32.62 -0.89, -32.59 -1.6 M-32.59 -1.6 C-32.53 -1.99, -32.47 -2.39, -32.35 -3.19 M-32.59 -1.6 C-32.5 -2.19, -32.41 -2.78, -32.35 -3.19 M-32.35 -3.19 C-32.25 -3.6, -32.14 -4.02, -31.96 -4.74 M-32.35 -3.19 C-32.23 -3.69, -32.1 -4.19, -31.96 -4.74 M-31.96 -4.74 C-31.81 -5.16, -31.67 -5.58, -31.42 -6.25 M-31.96 -4.74 C-31.83 -5.11, -31.7 -5.48, -31.42 -6.25 M-31.42 -6.25 C-31.15 -6.82, -30.88 -7.39, -30.74 -7.7 M-31.42 -6.25 C-31.22 -6.68, -31.01 -7.12, -30.74 -7.7 M-30.74 -7.7 C-30.46 -8.17, -30.17 -8.64, -29.91 -9.07 M-30.74 -7.7 C-30.55 -8.02, -30.36 -8.34, -29.91 -9.07 M-29.91 -9.07 C-29.67 -9.41, -29.42 -9.74, -28.96 -10.36 M-29.91 -9.07 C-29.54 -9.58, -29.17 -10.08, -28.96 -10.36 M-28.96 -10.36 C-28.73 -10.62, -28.49 -10.88, -27.88 -11.55 M-28.96 -10.36 C-28.67 -10.68, -28.39 -10.99, -27.88 -11.55 M-27.88 -11.55 C-27.57 -11.83, -27.26 -12.12, -26.7 -12.63 M-27.88 -11.55 C-27.52 -11.88, -27.15 -12.21, -26.7 -12.63 M-26.7 -12.63 C-26.28 -12.93, -25.87 -13.24, -25.41 -13.58 M-26.7 -12.63 C-26.37 -12.87, -26.03 -13.12, -25.41 -13.58 M-25.41 -13.58 C-25.11 -13.76, -24.81 -13.94, -24.03 -14.4 M-25.41 -13.58 C-24.89 -13.89, -24.36 -14.21, -24.03 -14.4 M-24.03 -14.4 C-23.72 -14.55, -23.41 -14.7, -22.58 -15.09 M-24.03 -14.4 C-23.47 -14.67, -22.9 -14.94, -22.58 -15.09 M-22.58 -15.09 C-22.24 -15.21, -21.9 -15.33, -21.07 -15.63 M-22.58 -15.09 C-22.17 -15.24, -21.75 -15.39, -21.07 -15.63 M-21.07 -15.63 C-20.57 -15.76, -20.07 -15.88, -19.52 -16.02 M-21.07 -15.63 C-20.72 -15.72, -20.36 -15.81, -19.52 -16.02 M-19.52 -16.02 C-18.91 -16.11, -18.29 -16.2, -17.93 -16.25 M-19.52 -16.02 C-19.08 -16.09, -18.64 -16.15, -17.93 -16.25 M-17.93 -16.25 C-17.6 -16.27, -17.27 -16.29, -16.33 -16.33 M-17.93 -16.25 C-17.6 -16.27, -17.26 -16.29, -16.33 -16.33 M-16.33 -16.33 C-15.84 -16.31, -15.35 -16.29, -14.73 -16.25 M-16.33 -16.33 C-16 -16.32, -15.67 -16.3, -14.73 -16.25 M-14.73 -16.25 C-14.3 -16.19, -13.86 -16.13, -13.15 -16.02 M-14.73 -16.25 C-14.17 -16.17, -13.61 -16.09, -13.15 -16.02 M-13.15 -16.02 C-12.55 -15.87, -11.96 -15.72, -11.59 -15.63 M-13.15 -16.02 C-12.68 -15.9, -12.22 -15.79, -11.59 -15.63 M-11.59 -15.63 C-11.15 -15.47, -10.71 -15.31, -10.08 -15.09 M-11.59 -15.63 C-11.06 -15.44, -10.53 -15.25, -10.08 -15.09 M-10.08 -15.09 C-9.63 -14.88, -9.19 -14.67, -8.63 -14.4 M-10.08 -15.09 C-9.61 -14.87, -9.13 -14.64, -8.63 -14.4 M-8.63 -14.4 C-8.26 -14.18, -7.89 -13.96, -7.26 -13.58 M-8.63 -14.4 C-8.26 -14.18, -7.89 -13.96, -7.26 -13.58 M-7.26 -13.58 C-6.76 -13.21, -6.26 -12.84, -5.97 -12.63 M-7.26 -13.58 C-6.89 -13.31, -6.53 -13.04, -5.97 -12.63 M-5.97 -12.63 C-5.54 -12.24, -5.11 -11.85, -4.78 -11.55 M-5.97 -12.63 C-5.67 -12.35, -5.36 -12.08, -4.78 -11.55 M-4.78 -11.55 C-4.56 -11.3, -4.33 -11.05, -3.71 -10.36 M-4.78 -11.55 C-4.47 -11.21, -4.16 -10.86, -3.71 -10.36 M-3.71 -10.36 C-3.35 -9.88, -2.99 -9.39, -2.75 -9.07 M-3.71 -10.36 C-3.49 -10.06, -3.27 -9.77, -2.75 -9.07 M-2.75 -9.07 C-2.45 -8.57, -2.14 -8.06, -1.93 -7.7 M-2.75 -9.07 C-2.51 -8.67, -2.27 -8.27, -1.93 -7.7 M-1.93 -7.7 C-1.74 -7.31, -1.56 -6.92, -1.24 -6.25 M-1.93 -7.7 C-1.66 -7.13, -1.39 -6.56, -1.24 -6.25 M-1.24 -6.25 C-1.05 -5.71, -0.86 -5.17, -0.7 -4.74 M-1.24 -6.25 C-1.04 -5.69, -0.84 -5.13, -0.7 -4.74 M-0.7 -4.74 C-0.61 -4.37, -0.51 -3.99, -0.31 -3.19 M-0.7 -4.74 C-0.58 -4.24, -0.45 -3.74, -0.31 -3.19 M-0.31 -3.19 C-0.25 -2.76, -0.19 -2.34, -0.08 -1.6 M-0.31 -3.19 C-0.26 -2.84, -0.21 -2.49, -0.08 -1.6 M-0.08 -1.6 C-0.06 -1.21, -0.04 -0.81, 0 0 M-0.08 -1.6 C-0.06 -1.18, -0.04 -0.76, 0 0 M0 0 C0 0, 0 0, 0 0 M0 0 C0 0, 0 0, 0 0" stroke="#1e1e1e" stroke-width="10" fill="none"></path></g></g><mask></mask></svg>