<svg version="1.1" xmlns="http://www.w3.org/2000/svg" viewBox="0 0 148.59888423645134 136.58444920689408" width="148.59888423645134" height="136.58444920689408" class="excalidraw-svg"><!-- svg-source:excalidraw --><metadata></metadata><defs><style class="style-fonts">
      </style></defs><rect x="0" y="0" width="148.59888423645134" height="136.58444920689408" fill="#ffffff"></rect><g stroke-linecap="round"><g transform="translate(0 136.58444920689408) rotate(0 74.29944211822567 0)"><path d="M0 0 C50.67 0, 101.35 0, 148.6 0 M0 0 C36.45 0, 72.91 0, 148.6 0" stroke="#1e1e1e" stroke-width="20" fill="none"></path></g></g><mask></mask><g stroke-linecap="round" transform="translate(29.37123063262618 0) rotate(0 44.928211485599434 44.928211485599434)"><path d="M89.86 44.93 C89.86 47.06, 89.7 49.21, 89.4 51.32 C89.1 53.43, 88.64 55.54, 88.04 57.59 C87.44 59.63, 86.68 61.65, 85.8 63.59 C84.91 65.53, 83.88 67.43, 82.72 69.22 C81.57 71.01, 80.28 72.74, 78.88 74.35 C77.49 75.96, 75.96 77.49, 74.35 78.88 C72.74 80.28, 71.01 81.57, 69.22 82.72 C67.43 83.88, 65.53 84.91, 63.59 85.8 C61.65 86.68, 59.63 87.44, 57.59 88.04 C55.54 88.64, 53.43 89.1, 51.32 89.4 C49.21 89.7, 47.06 89.86, 44.93 89.86 C42.8 89.86, 40.64 89.7, 38.53 89.4 C36.42 89.1, 34.32 88.64, 32.27 88.04 C30.23 87.44, 28.2 86.68, 26.26 85.8 C24.33 84.91, 22.43 83.88, 20.64 82.72 C18.85 81.57, 17.12 80.28, 15.51 78.88 C13.9 77.49, 12.37 75.96, 10.97 74.35 C9.58 72.74, 8.28 71.01, 7.13 69.22 C5.98 67.43, 4.95 65.53, 4.06 63.59 C3.17 61.65, 2.42 59.63, 1.82 57.59 C1.22 55.54, 0.76 53.43, 0.46 51.32 C0.15 49.21, 0 47.06, 0 44.93 C0 42.8, 0.15 40.64, 0.46 38.53 C0.76 36.42, 1.22 34.32, 1.82 32.27 C2.42 30.23, 3.17 28.2, 4.06 26.26 C4.95 24.33, 5.98 22.43, 7.13 20.64 C8.28 18.85, 9.58 17.12, 10.97 15.51 C12.37 13.9, 13.9 12.37, 15.51 10.97 C17.12 9.58, 18.85 8.28, 20.64 7.13 C22.43 5.98, 24.33 4.95, 26.26 4.06 C28.2 3.17, 30.23 2.42, 32.27 1.82 C34.32 1.22, 36.42 0.76, 38.53 0.46 C40.64 0.15, 42.8 0, 44.93 0 C47.06 0, 49.21 0.15, 51.32 0.46 C53.43 0.76, 55.54 1.22, 57.59 1.82 C59.63 2.42, 61.65 3.17, 63.59 4.06 C65.53 4.95, 67.43 5.98, 69.22 7.13 C71.01 8.28, 72.74 9.58, 74.35 10.97 C75.96 12.37, 77.49 13.9, 78.88 15.51 C80.28 17.12, 81.57 18.85, 82.72 20.64 C83.88 22.43, 84.91 24.33, 85.8 26.26 C86.68 28.2, 87.44 30.23, 88.04 32.27 C88.64 34.32, 89.1 36.42, 89.4 38.53 C89.7 40.64, 89.78 43.86, 89.86 44.93 C89.93 45.99, 89.93 43.86, 89.86 44.93" stroke="#1e1e1e" stroke-width="20" fill="none"></path></g><g stroke-linecap="round"><g transform="translate(74.29944211822556 44.92821148559949) rotate(0 0 45.828118860647294)"><path d="M0 0 C0 20.12, 0 40.25, 0 91.66 M0 0 C0 22.91, 0 45.82, 0 91.66" stroke="#1e1e1e" stroke-width="20" fill="none"></path></g></g><mask></mask></svg>